<svg xmlns="http://www.w3.org/2000/svg" viewBox="0 0 64 64" id="share"><g fill="#d8a353" data-name="Share" class="color222222 svgShape"><path d="M14.68 24.5a9 9 0 1 1 9-9 8.77 8.77 0 0 1-.74 3.56c0 .1-.09.21-.14.31a9 9 0 0 1-8.12 5.13zm0-14a5 5 0 1 0 4.5 7.16l.06-.12a4.93 4.93 0 0 0 .44-2 5 5 0 0 0-5-5.04zm.02 47A9 9 0 1 1 22.47 44c.09.16.18.31.25.46a1.77 1.77 0 0 1 .15.31L23 45a9 9 0 0 1-8.3 12.5zm0-14a4.92 4.92 0 0 0-2.49.67 5 5 0 1 0 5 8.67 5 5 0 0 0 2.09-6.31 1.19 1.19 0 0 1-.12-.22c-.05-.11-.11-.21-.16-.31a5 5 0 0 0-4.34-2.51zm6.3 2.12h.05zM49.31 41a9 9 0 0 1-4.49-1.21 8.73 8.73 0 0 1-3.59-3.87 2.64 2.64 0 0 1-.18-.38 9 9 0 0 1 0-7.08l.09-.2a.77.77 0 0 1 .07-.16 6.46 6.46 0 0 1 .35-.66A9 9 0 1 1 49.31 41zm-4.48-11.2a1 1 0 0 1-.07.15 5.07 5.07 0 0 0 0 4v.1a4.91 4.91 0 0 0 2 2.23 5 5 0 0 0 6.84-1.82 5 5 0 0 0-8.66-5c-.08.14-.12.22-.16.3z" fill="#8526fe" class="color000000 svgShape"></path><path d="M42.91 31.24a2.1 2.1 0 0 1-.7-.12 2 2 0 0 1-1-.75L25.71 23a2 2 0 1 1 1.72-3.61l16.43 7.83a2 2 0 0 1 1 2.51 1.89 1.89 0 0 1-.11.25 2 2 0 0 1-1.84 1.26zM14.68 37.6a2 2 0 0 1-2-2V22.5a2 2 0 0 1 4 0v13.1a2 2 0 0 1-2 2zM21 47.48a2 2 0 0 1-.86-3.8l16.41-7.81a2 2 0 1 1 1.72 3.61l-16.41 7.81a2 2 0 0 1-.86.19z" fill="#8526fe" class="color000000 svgShape"></path></g></svg>